<?xml version="1.0" encoding="utf-8"?>
<!-- Generator: Adobe Illustrator 19.2.0, SVG Export Plug-In . SVG Version: 6.00 Build 0)  -->
<svg version="1.1" id="Layer_1" xmlns="http://www.w3.org/2000/svg" xmlns:xlink="http://www.w3.org/1999/xlink" x="0px" y="0px"
	 viewBox="0 0 660 530" style="enable-background:new 0 0 660 530;" xml:space="preserve">
<style type="text/css">
	.st0{fill:#233345;}
</style>
<g>
	<path class="st0" d="M330.3,10.5c-13.1,0-45.8-10.2-52.6,0C270.5,21.3,304,55,304,55l26.3,44.4L356.6,55c0,0,33.5-33.6,26.3-44.4
		C376.1,0.4,343.4,10.5,330.3,10.5L330.3,10.5z"/>
	<path class="st0" d="M373.6,286.2H287c-12,0-21.7-9.3-21.7-20.6c0-11.3,9.8-20.6,21.7-20.6h86.7c12,0,21.7,9.3,21.7,20.6
		C395.3,276.9,385.6,286.2,373.6,286.2L373.6,286.2z"/>
	<path class="st0" d="M414,474.9c-23.7,10.6-52.5,16.8-83.8,16.8c-31.3,0-60-6.2-83.8-16.8c-11.3,4.8-17.9,10.6-17.9,16.9
		c0,16.4,45.5,29.8,101.7,29.8c56.2,0,101.7-13.3,101.7-29.8C432,485.5,425.4,479.7,414,474.9L414,474.9z"/>
	<path class="st0" d="M452.2,391.3c0,41.1-54.6,74.4-121.9,74.4s-121.9-33.3-121.9-74.4c0-41.1,54.6-74.4,121.9-74.4
		S452.2,350.3,452.2,391.3L452.2,391.3z"/>
	<polygon class="st0" points="365.6,100.2 356.6,84.1 330.3,37.3 304,84.1 295,100.2 365.6,100.2 	"/>
	<path class="st0" d="M348.2,100.2c-1.8-1-4.4-1.6-7.3-1.6h-21.3c-2.9,0-5.5,0.6-7.3,1.6H348.2L348.2,100.2z"/>
	<path class="st0" d="M356.9,193.4h-53.2l-12.3,176.5c-0.7,9.4,7.3,17.3,17.6,17.3h42.6c10.3,0,18.2-7.9,17.6-17.3L356.9,193.4
		L356.9,193.4z"/>
	<path class="st0" d="M553.5,283.8L553.5,283.8c0.3-1.1,0-1.8-0.2-1.6C553.4,282.6,553.5,283.3,553.5,283.8L553.5,283.8z"/>
	<path class="st0" d="M575.1,304.2c0.4-0.1,0.8-0.1,0.8-0.1C576,304.2,575.6,304.2,575.1,304.2L575.1,304.2z M569.9,304.2l0.1,0
		C570,304.2,569.9,304.2,569.9,304.2L569.9,304.2z M566.7,303.3c-0.5-0.1-0.9-0.3-0.9-0.3C565.8,302.8,566.2,303,566.7,303.3
		L566.7,303.3z M562.9,301.1c0.5,0.3,1.1,0.7,1,0.7C563.8,301.8,563.4,301.5,562.9,301.1L562.9,301.1z M657.4,340.6
		c-0.8-11.4-4.7-21.8-12.4-30.7c-7.8-9-20.3-13.9-32.4-13.6c-12.3,0.2-23.4,5.1-35.3,7.5c-0.6,0.1-1.2,0.2-1.8,0.3
		c-0.2,0-0.3,0.1-0.4,0.1c-1,0-2.5,0-2.7,0c-0.2,0-1.3,0-1.9-0.1c-0.9-0.2-1.8-0.4-2.7-0.6c-0.1,0-0.3-0.1-0.6-0.2
		c-0.8-0.5-1.8-0.9-2.6-1.4c-0.6-0.3-1.1-0.8-1.7-1.1l0,0c-0.8-0.7-1.7-1.7-1.9-1.9c-0.5-0.5-1.2-1.6-1.8-2.1
		c-0.2-0.3-0.4-0.6-0.6-0.9c-0.6-0.9-1.1-1.7-1.6-2.6c-0.3-0.4-0.5-0.9-0.7-1.4c-0.2-0.4-0.8-2-0.8-1.9c-0.1-0.3-0.2-0.6-0.3-0.8
		c-0.4-1.1-0.7-2.3-1-3.5c-0.2-0.7-0.3-1.5-0.5-2.2l0,0.1c0-0.1,0-0.1,0-0.2c0-0.2-0.1-0.5-0.1-0.7c-0.1-0.5-0.1-0.8,0-0.9l0-0.2
		c-0.2-2.8,0.1-5.6,0.2-8.3l0-0.1c0.1-0.4,0.1-0.8,0.2-1.2c0.3-1.7,0.7-3.5,1.2-5.2c0.8-2.8,1.7-5.6,2.7-8.3
		c0.6-1.5,1.2-2.9,1.8-4.4c0-0.1,0.1-0.2,0.1-0.2c0.3-0.6,0.6-1.2,0.8-1.8c10.9-23.2,26.6-45.3,26.7-71.7
		c0.1-21.9-11.1-42.9-27.7-57.7c-17.8-15.8-40.4-24.5-64.7-26.1c-26.2-1.7-52.5,5.7-75.7,16.9c-2.4,1.2-4.8,2.4-7.2,3.7
		c6.7,7.8,10.7,17.6,11,28.3c3.7-2.2,7.5-4.2,11.4-6.1c2.6-1.3,5.3-2.5,7.9-3.6c0.5-0.2,1-0.4,1.5-0.6c1.4-0.5,2.7-1,4.1-1.5
		c5.5-1.9,11.1-3.6,16.7-4.9c2.8-0.6,5.7-1.2,8.5-1.7c0.4-0.1,2.4-0.3,2.9-0.4c0.1,0,0.2,0,0.2,0c0.9-0.1,1.8-0.2,2.6-0.2
		c6-0.5,12-0.5,17.9,0c0.4,0,1.8,0.2,2.6,0.3c0.8,0.1,2.2,0.3,2.5,0.4c2.7,0.5,5.5,1.1,8.1,1.8c2.1,0.6,4.3,1.3,6.4,2
		c0.3,0.1,1,0.5,1.4,0.6c1,0.5,2,0.9,3.1,1.4c4.1,2,7.8,4.3,11.6,6.8c0.3,0.3,1,0.7,1.2,0.8c0.9,0.7,1.7,1.4,2.5,2.1
		c1.9,1.6,3.8,3.4,5.6,5.2c0.8,0.8,1.5,1.6,2.2,2.4c0.3,0.3,1.4,1.8,1.6,1.9c0.4,0.6,0.8,1.2,1,1.3c0.7,1,1.4,2,2.1,3.1
		c1.2,1.9,2.4,3.9,3.4,5.9c0.1,0.1,0.1,0.2,0.2,0.4c0.1,1,1,2.4,1.3,3.2c0.7,2.1,1.4,4.3,1.8,6.4c0.2,0.8,0.2,2,0.5,2.8
		c0,0.3,0.1,0.6,0.1,0.9c0.2,2.3,0.2,4.7,0.1,7.1c-0.1,1-0.2,2-0.3,3.1c0.1-1.1-0.3,1.8-0.5,2.7c-1.2,5.6-3.3,10.8-5.3,16.2
		c0,0.1-0.1,0.1-0.1,0.2c-0.3,0.6-0.5,1.1-0.8,1.7c-0.6,1.2-1.2,2.4-1.7,3.6c-1.4,2.8-2.8,5.6-4.3,8.3c-2.7,5.2-5.6,10.4-8.1,15.6
		c-6,12.3-10.7,24.6-12.2,38.1c-1.3,11.6,1.1,22.8,6.3,33.3c4.6,9.2,12.7,17.9,22.3,22.6c11.9,5.8,24.8,6,37.6,2.9
		c5.3-1.3,10.4-3,15.6-4.3c1.4-0.4,2.8-0.7,4.2-1c0.4-0.1,1.8-0.3,2.4-0.4c0.7,0,1.5-0.1,1.8-0.1c0.6,0,1.2,0,1.8,0
		c0.2,0,0.3,0,0.4,0c0.9,0.2,1.8,0.4,2.8,0.6l0.1,0c0.7,0.4,1.4,0.7,2.1,1.1c0.1,0,0.1,0.1,0.2,0.1c0.1,0.1,0.1,0.1,0.2,0.2
		c0.6,0.6,1.2,1.2,1.9,1.8c0.4,0.7,1,1.4,1.4,2.1c0.1,0.2,0.6,1.1,0.9,1.7c0.2,0.5,0.5,1.1,0.5,1.3c0.3,0.9,0.6,1.8,0.8,2.7
		c0.2,0.7,0.2,2.2,0.5,3c0,0.1,0,0.3,0,0.4c0.1,1.9,0,3.7-0.1,5.6l0,0.1l0,0.1c-0.3,1-0.5,2.1-0.8,3.1c-0.3,0.9-0.7,1.8-1,2.7
		c0,0.1-0.1,0.2-0.1,0.3c-0.2,0.3-0.4,0.7-0.5,1c-1.2,2.2-2.5,4.4-4,6.5c-0.6,0.8-1.2,1.6-1.8,2.4c-0.4,0.5-0.9,1-1.3,1.5
		c-1.7,1.9-3.6,3.8-5.5,5.6c-8.1,7.6-17.2,14.1-26.1,20.8c-10.7,8.1-21.5,16.1-32.2,24.2c-21.1,15.8-42.1,31.7-63.2,47.5
		c-5.3,4-10.5,7.9-15.8,11.9c-6.4,4.8-5.7,16,0,21c6.8,6,15.3,5.2,22.1,0c22.1-16.6,44.2-33.2,66.2-49.8
		c20.9-15.7,42.5-30.9,62.8-47.4C642.6,383.8,659,364,657.4,340.6L657.4,340.6z"/>
	<path class="st0" d="M373.6,167.4H287c-12,0-21.7-9.3-21.7-20.6c0-11.3,9.8-20.6,21.7-20.6h86.7c12,0,21.7,9.3,21.7,20.6
		C395.3,158.1,385.6,167.4,373.6,167.4L373.6,167.4z"/>
</g>
</svg>
